# xmcd
#
# Track frame offsets:
#	150
#	11760
#	23010
#	36102
#	48120
#	62991
#	74796
#	86694
#	96943
#	113735
#	126667
#
# Disc length: 1933 seconds
# Revision: 1
# Processed by: cddbd v1.5.2PL0 Copyright (c) Steve Scherf et al.
# Submitted via: dBpowerAMP V12.0
#
DISCID=9a078b0b
DTITLE=Lou Watson - Lone Star State Of Mind
DYEAR=2007
DGENRE=Country
TTITLE0=Cindy
TTITLE1=Lone Star State of Mind
TTITLE2=Poor House
TTITLE3=Steppin' Stone
TTITLE4=I'll Be Over You
TTITLE5=Never Get the Red Out
TTITLE6=Sittin' on My John Deere
TTITLE7=Cowboys and City Girls
TTITLE8=Every Time I Close My Eyes
TTITLE9=Two Below in Tupelo
TTITLE10=Who Will Run My Heart
EXTD=
EXTT0=
EXTT1=
EXTT2=
EXTT3=
EXTT4=
EXTT5=
EXTT6=
EXTT7=
EXTT8=
EXTT9=
EXTT10=
PLAYORDER=
